<svg width="15" height="20" viewBox="0 0 15 20" fill="none" xmlns="http://www.w3.org/2000/svg">
<path d="M8.12334 19.5086C12.3701 19.5086 14.9289 17.4615 14.9289 14.0851C14.9289 11.5328 13.1033 9.68499 10.392 9.39244V9.28593C12.384 8.96711 13.9468 7.14596 13.9468 5.11179C13.9468 2.21401 11.623 0.326294 8.08167 0.326294H0.11377V19.5086H8.12334ZM3.21248 2.75917H7.33495C9.57547 2.75917 10.8485 3.74261 10.8485 5.52417C10.8485 7.42484 9.36823 8.48852 6.68473 8.48852H3.21248V2.75917ZM3.21248 17.0761V10.7616H7.30717C10.2396 10.7616 11.7612 11.8249 11.7612 13.8987C11.7612 15.9725 10.2812 17.0761 7.487 17.0761H3.21248Z" fill="white"/>
</svg>
