<svg width="47" height="37" viewBox="0 0 47 37" fill="none" xmlns="http://www.w3.org/2000/svg">
<path d="M5.12074 4.7475C5.03327 2.27752 6.99248 0 9.64105 0H36.7799C39.4285 0 41.3877 2.27752 41.3002 4.7475C41.2161 7.11998 41.3253 10.1934 42.1128 12.6993C42.903 15.2131 44.2352 16.8016 46.4173 17.006V19.3209C44.2352 19.5249 42.903 21.1138 42.1128 23.6277C41.3253 26.1335 41.2161 29.207 41.3002 31.5794C41.3877 34.0494 39.4285 36.3266 36.7799 36.3266H9.64105C6.99248 36.3266 5.03327 34.049 5.12074 31.5794C5.20488 29.207 5.09564 26.1335 4.30775 23.6277C3.51801 21.1142 2.18211 19.5253 0 19.3209V17.006C2.18211 16.802 3.51801 15.2131 4.30775 12.6993C5.09564 10.1934 5.20451 7.11998 5.12074 4.7475Z" fill="url(#paint0_linear_138_9)"/>
<defs>
<linearGradient id="paint0_linear_138_9" x1="6.89764" y1="0.961533" x2="46.8891" y2="33.2856" gradientUnits="userSpaceOnUse">
<stop stop-color="#9013FE"/>
<stop offset="1" stop-color="#6610F2"/>
</linearGradient>
</defs>
</svg>
