<svg width="45" height="11" viewBox="0 0 45 11" fill="none" xmlns="http://www.w3.org/2000/svg">
<path d="M0.298828 8.32734V0.916077H2.40756C3.04821 0.916077 3.55642 1.0729 3.93218 1.38654C4.30766 1.6999 4.4954 2.10811 4.4954 2.61117C4.4954 3.03177 4.38175 3.39708 4.15446 3.7071C3.92689 4.01713 3.61324 4.2376 3.21353 4.36851V4.3894C3.71324 4.4479 4.11295 4.63731 4.41267 4.95763C4.71238 5.27462 4.86224 5.68812 4.86224 6.19814C4.86224 6.83211 4.63495 7.34547 4.18036 7.73822C3.7255 8.13097 3.15169 8.32734 2.45895 8.32734H0.298828ZM1.16706 1.70157V4.09442H2.05617C2.53165 4.09442 2.90546 3.98078 3.1776 3.75348C3.44974 3.52229 3.58581 3.19834 3.58581 2.78164C3.58581 2.06159 3.112 1.70157 2.16439 1.70157H1.16706ZM1.16706 4.87491V7.54184H2.3453C2.85504 7.54184 3.2496 7.42123 3.52898 7.18001C3.81143 6.93879 3.95265 6.60802 3.95265 6.18769C3.95265 5.3125 3.35656 4.87491 2.16439 4.87491H1.16706ZM8.46467 8.45269C7.68252 8.45269 7.05718 8.20631 6.58867 7.71357C6.1235 7.21775 5.89091 6.56136 5.89091 5.74439C5.89091 4.85583 6.1338 4.16155 6.61959 3.66156C7.10565 3.16213 7.76204 2.91241 8.58877 2.91241C9.37761 2.91241 9.99264 3.1553 10.4339 3.64109C10.8781 4.12687 11.1003 4.8004 11.1003 5.66166C11.1003 6.50593 10.8607 7.18308 10.3816 7.69309C9.90643 8.19949 9.26744 8.45269 8.46467 8.45269ZM8.52651 3.62563C7.98223 3.62563 7.5516 3.8117 7.23462 4.18384C6.91763 4.55235 6.75914 5.06223 6.75914 5.71347C6.75914 6.34076 6.9193 6.83517 7.23963 7.19672C7.55996 7.55883 7.98892 7.73989 8.52651 7.73989C9.07441 7.73989 9.49488 7.56232 9.78791 7.20717C10.084 6.8523 10.232 6.34758 10.232 5.693C10.232 5.03145 10.084 4.52143 9.78791 4.16294C9.49488 3.80473 9.07441 3.62563 8.52651 3.62563ZM14.6668 8.45269C13.8846 8.45269 13.2593 8.20631 12.7908 7.71357C12.3256 7.21775 12.093 6.56136 12.093 5.74439C12.093 4.85583 12.3359 4.16155 12.8217 3.66156C13.3077 3.16213 13.9641 2.91241 14.7909 2.91241C15.5797 2.91241 16.1947 3.1553 16.636 3.64109C17.0805 4.12687 17.3028 4.8004 17.3028 5.66166C17.3028 6.50593 17.0632 7.18308 16.5841 7.69309C16.1087 8.19949 15.4698 8.45269 14.6668 8.45269ZM14.7286 3.62563C14.1843 3.62563 13.7537 3.8117 13.4367 4.18384C13.1197 4.55235 12.9612 5.06223 12.9612 5.71347C12.9612 6.34076 13.1214 6.83517 13.4417 7.19672C13.7621 7.55883 14.191 7.73989 14.7286 7.73989C15.2765 7.73989 15.697 7.56232 15.99 7.20717C16.2861 6.8523 16.4341 6.34758 16.4341 5.693C16.4341 5.03145 16.2861 4.52143 15.99 4.16294C15.697 3.80473 15.2768 3.62563 14.7286 3.62563ZM21.1112 8.2772C20.9115 8.38751 20.6478 8.44266 20.3203 8.44266C19.3936 8.44266 18.9302 7.92582 18.9302 6.89214V3.76017H18.0206V3.0365H18.9302V1.74461L19.7779 1.47052V3.0365H21.1108V3.76017H19.7779V6.74214C19.7779 7.09701 19.8383 7.35034 19.9589 7.50215C20.0792 7.65368 20.2789 7.72944 20.558 7.72944C20.7717 7.72944 20.9561 7.67095 21.1112 7.55396V8.2772ZM21.9226 8.13515V7.22555C22.3842 7.56649 22.8924 7.73696 23.4472 7.73696C24.1915 7.73696 24.5636 7.48906 24.5636 6.99325C24.5636 6.85175 24.5309 6.73281 24.4655 6.63643C24.3989 6.5312 24.3108 6.44132 24.2068 6.37279C24.088 6.29052 23.9596 6.2229 23.8245 6.1714C23.6688 6.10489 23.512 6.04109 23.3541 5.98004C23.1428 5.89758 22.9358 5.80443 22.734 5.70093C22.5724 5.6141 22.4229 5.50635 22.2895 5.38047C22.1748 5.26268 22.0836 5.12414 22.0208 4.97226C21.9623 4.82073 21.9331 4.6433 21.9331 4.43996C21.9331 4.19205 21.9899 3.97325 22.1035 3.78357C22.2164 3.59078 22.3719 3.42642 22.5581 3.30307C22.7551 3.16856 22.9738 3.06879 23.2045 3.00809C23.4507 2.94264 23.7043 2.90963 23.9591 2.90991C24.4173 2.90991 24.8273 2.98929 25.1891 3.14806V4.00584C24.7997 3.7507 24.3517 3.62312 23.845 3.62312C23.6862 3.62312 23.5433 3.64206 23.4163 3.67995C23.2981 3.71036 23.1861 3.76127 23.0854 3.83036C22.9978 3.89243 22.9253 3.97358 22.8736 4.06768C22.8248 4.16009 22.8 4.26322 22.8013 4.36768C22.8013 4.505 22.8254 4.62032 22.8736 4.71363C22.9248 4.80694 22.9989 4.88967 23.0958 4.96181C23.1922 5.03424 23.3094 5.09969 23.4472 5.15819C23.5851 5.21668 23.7419 5.28047 23.9177 5.34955C24.1517 5.43896 24.3618 5.532 24.5482 5.62865C24.7206 5.71311 24.8806 5.82095 25.0237 5.94912C25.1546 6.06611 25.2544 6.20218 25.3232 6.35733C25.3957 6.5122 25.4319 6.69646 25.4319 6.9101C25.4319 7.17194 25.3734 7.39937 25.2564 7.5924C25.1422 7.78543 24.9887 7.94559 24.7959 8.07289C24.5917 8.20509 24.3663 8.30132 24.1295 8.35742C23.8705 8.41989 23.605 8.45117 23.3386 8.4506C22.7943 8.4506 22.3226 8.34545 21.9226 8.13515ZM29.1885 8.2772C28.989 8.38751 28.7255 8.44266 28.398 8.44266C27.4712 8.44266 27.0079 7.92582 27.0079 6.89214V3.76017H26.0983V3.0365H27.0079V1.74461L27.8556 1.47052V3.0365H29.1885V3.76017H27.8556V6.74214C27.8556 7.09701 27.9159 7.35034 28.0366 7.50215C28.1569 7.65368 28.3566 7.72944 28.6357 7.72944C28.8493 7.72944 29.0337 7.67095 29.1889 7.55396L29.1885 8.2772ZM33.0809 3.89429C32.9327 3.78064 32.719 3.72382 32.4399 3.72382C32.0778 3.72382 31.7746 3.89429 31.5303 4.23523C31.2891 4.57645 31.1685 5.04162 31.1685 5.63074V8.32859H30.3212V3.0365H31.1685V4.12701H31.1894C31.3103 3.75487 31.4946 3.46547 31.7422 3.25879C31.9901 3.04848 32.2675 2.94333 32.5745 2.94333C32.7945 2.94333 32.9633 2.96757 33.0809 3.01603V3.89429ZM37.7901 8.32734H36.9424V7.50006H36.9215C36.5532 8.13431 36.0109 8.45143 35.2945 8.45143C34.7672 8.45143 34.3535 8.31188 34.0536 8.03278C33.7575 7.75368 33.6094 7.38321 33.6094 6.92138C33.6094 5.93255 34.1916 5.35735 35.3559 5.19579L36.9428 4.97309C36.9428 4.07395 36.5793 3.62438 35.8523 3.62438C35.215 3.62438 34.6396 3.84136 34.1263 4.27534V3.40711C34.6463 3.07648 35.2459 2.91116 35.925 2.91116C37.1687 2.91116 37.7905 3.56922 37.7905 4.88535L37.7901 8.32734ZM36.9419 5.65038L35.6659 5.82586C35.2732 5.88101 34.9768 5.9792 34.7768 6.12043C34.5771 6.25831 34.4772 6.50468 34.4772 6.85955C34.4772 7.11804 34.5686 7.33001 34.7513 7.49547C34.9374 7.65702 35.1838 7.7378 35.4904 7.7378C35.911 7.7378 36.2573 7.59156 36.5291 7.29909C36.8049 7.003 36.9428 6.62905 36.9428 6.17725L36.9419 5.65038ZM40.2552 7.56273H40.2343V10.762H39.387V3.03525H40.2348V3.96532H40.2552C40.6722 3.26254 41.2821 2.91116 42.0849 2.91116C42.7673 2.91116 43.2996 3.1489 43.6818 3.62438C44.0642 4.09623 44.2554 4.7302 44.2554 5.52629C44.2554 6.41178 44.0401 7.12152 43.6095 7.65549C43.1786 8.18612 42.5895 8.45143 41.8421 8.45143C41.1563 8.45143 40.6274 8.15548 40.2552 7.56273ZM40.2343 5.4281V6.16764C40.2343 6.60496 40.3757 6.97695 40.6584 7.28363C40.9445 7.58697 41.3062 7.73864 41.7435 7.73864C42.2569 7.73864 42.6584 7.54226 42.9481 7.14951C43.2405 6.75676 43.3868 6.21054 43.3868 5.51083C43.3868 4.9217 43.2509 4.46001 42.979 4.12576C42.7069 3.7915 42.3382 3.62438 41.873 3.62438C41.38 3.62438 40.9838 3.79666 40.6843 4.14122C40.3843 4.48244 40.2343 4.9114 40.2343 5.4281Z" fill="#7952B3"/>
</svg>
