<svg width="46" height="46" viewBox="0 0 46 46" fill="none" xmlns="http://www.w3.org/2000/svg">
<path d="M41.4719 11.0328L24.1141 1.04221C23.8266 0.862524 23.4313 0.790649 23 0.790649C22.5688 0.790649 22.1734 0.898462 21.8859 1.04221L4.63594 11.0688C4.025 11.4281 3.59375 12.3266 3.59375 13.0094V33.0266C3.59375 33.4219 3.66563 33.8891 3.95313 34.2844L42.3344 12.0031C42.1188 11.5719 41.7953 11.2485 41.4719 11.0328Z" fill="#9B4F96"/>
<path d="M3.84534 34.2484C4.02502 34.5359 4.27659 34.7875 4.52815 34.9312L21.85 44.9578C22.1375 45.1375 22.5328 45.2094 22.9641 45.2094C23.3953 45.2094 23.7906 45.1015 24.0781 44.9578L41.3281 34.9312C41.9391 34.5718 42.3703 33.6734 42.3703 32.9906V12.9734C42.3703 12.65 42.3344 12.2906 42.1547 11.9672L3.84534 34.2484Z" fill="#68217A"/>
<path d="M30.6547 27.3484C29.1453 30.0078 26.2703 31.8047 23 31.8047C18.1484 31.8047 14.1953 27.8516 14.1953 23C14.1953 18.1484 18.1484 14.1953 23 14.1953C26.2703 14.1953 29.1453 15.9922 30.6547 18.6875L35.3266 15.9922C32.8828 11.7156 28.2828 8.80469 23 8.80469C15.1656 8.80469 8.80469 15.1656 8.80469 23C8.80469 30.8344 15.1656 37.1953 23 37.1953C28.2469 37.1953 32.8469 34.3203 35.2906 30.0797L30.6547 27.3484ZM34.8594 23.7906L35.1828 22.2453H33.6734V20.5563H35.5062L35.9375 18.3281H37.6984L37.2672 20.5203H38.6328L39.0641 18.3281H40.7891L40.3578 20.5203H41.2203V22.2094H40.0344L39.7109 23.7547H41.2203V25.4438H39.3875L38.9562 27.6H37.1953L37.6266 25.4438H36.2609L35.8297 27.6H34.1047L34.5359 25.4438H33.6734V23.7547H34.8594V23.7906ZM36.5844 23.7906H37.95L38.2734 22.2453H36.9078L36.5844 23.7906Z" fill="white"/>
</svg>
