<svg width="38" height="38" viewBox="0 0 38 38" fill="none" xmlns="http://www.w3.org/2000/svg">
<path d="M29.0938 0H8.90625C3.98746 0 0 3.98746 0 8.90625V29.0938C0 34.0125 3.98746 38 8.90625 38H29.0938C34.0125 38 38 34.0125 38 29.0938V8.90625C38 3.98746 34.0125 0 29.0938 0Z" fill="#0277BD"/>
<path d="M7.97896 15.2373L8.40379 19.9786H19.0142V15.2373H7.97896ZM19.0141 5.64062H7.125L7.55606 10.382H19.0141V5.64062ZM19.0141 32.4842V27.5512L18.9933 27.5567L13.7128 26.1309L13.3753 22.3493H8.61561L9.27987 29.7941L18.9923 32.4903L19.0141 32.4842Z" fill="#EBEBEB"/>
<path d="M24.8363 19.9786L24.2859 26.1278L18.9978 27.5552V32.4879L28.7179 29.7941L28.7892 28.993L29.9034 16.5106L30.019 15.2373L30.875 5.64062H18.9978V10.382H25.6788L25.2475 15.2373H18.9978V19.9786H24.8363Z" fill="white"/>
</svg>
