<svg width="118" height="107" viewBox="0 0 118 107" fill="none" xmlns="http://www.w3.org/2000/svg">
<path d="M103.764 53.3756C103.764 50.6263 103.459 47.9456 102.87 45.359L117.76 37.6164L103.821 15.8619L88.9786 23.5788C84.4907 19.9559 79.1662 17.1467 73.3091 15.3994V0H45.4218V15.408C42.8165 16.1874 40.3159 17.1638 37.9484 18.3372C37.6631 18.4742 37.3874 18.6284 37.1116 18.774C36.8359 18.9196 36.5507 19.0566 36.2749 19.2108C33.9644 20.4698 31.7681 21.9258 29.7238 23.5702L14.9101 15.8619L0.971191 37.6164L15.7849 45.3247C15.2239 47.74 14.9196 50.181 14.8721 52.6133C14.8721 52.9046 14.8721 53.2043 14.8721 53.4955C14.8721 53.7782 14.8721 54.0608 14.8721 54.352C14.9291 56.7844 15.2334 59.2254 15.7849 61.6492L0.971191 69.3489L14.9101 91.1034L29.7238 83.3951C34.3258 87.0951 39.6883 89.8358 45.4122 91.5316V106.965H73.2996V91.4803C76.0855 90.6409 78.8144 89.5446 81.4576 88.1657C84.1579 86.7611 86.6395 85.1338 88.874 83.3266L103.811 91.0948L117.75 69.3403L102.813 61.5721C103.421 58.9256 103.754 56.1763 103.754 53.3671L103.764 53.3756ZM77.6258 71.079C77.5022 71.1818 77.3881 71.276 77.2645 71.3787C76.7796 71.7727 76.2852 72.141 75.7812 72.5007C75.5435 72.6635 75.3058 72.8262 75.0586 72.9889C74.6403 73.263 74.2219 73.5199 73.7845 73.7683C73.4423 73.9653 73.0905 74.1537 72.7386 74.3422C72.3868 74.5306 72.0255 74.7019 71.6642 74.8732C71.2078 75.0873 70.7419 75.2843 70.276 75.4727C70.0003 75.5841 69.7246 75.6868 69.4488 75.7896C68.8498 76.0037 68.2508 76.2093 67.6328 76.3891C67.4806 76.432 67.319 76.4834 67.1669 76.5262C64.7043 77.1942 62.0895 77.5711 59.3797 77.5711C44.547 77.5711 32.5192 66.7366 32.5192 53.3756C32.5192 50.1039 33.2513 46.9863 34.5539 44.1428C34.6205 44.0058 34.6776 43.8773 34.7441 43.7403C34.9818 43.2435 35.2575 42.7553 35.5333 42.2671C35.7139 41.9588 35.8946 41.659 36.0848 41.3592C36.2749 41.0595 36.4746 40.7683 36.6838 40.4771C37.007 40.0231 37.3398 39.5692 37.7011 39.1324C37.7962 39.0125 37.8913 38.9012 37.9864 38.7813C40.0687 36.3403 42.7024 34.2077 45.8496 32.5718C58.6951 25.8913 75.1157 29.8568 82.532 41.4278C83.8822 43.5433 84.8425 45.7615 85.4225 48.0226C85.4605 48.1682 85.4891 48.3053 85.5271 48.4509C85.6602 49.0247 85.7743 49.5986 85.8599 50.1724C85.8979 50.4379 85.9359 50.712 85.9645 50.9775C86.0215 51.44 86.0596 51.9025 86.0786 52.365C86.0976 52.7333 86.1071 53.1015 86.1071 53.4613C86.1071 53.8295 86.1071 54.1978 86.0786 54.5661C86.05 55.0286 86.0215 55.4825 85.9645 55.945C85.9359 56.2191 85.8979 56.4846 85.8599 56.7587C85.7743 57.3325 85.6602 57.9064 85.5271 58.4716C85.4891 58.6172 85.4605 58.7629 85.4225 58.9085C84.833 61.1695 83.8822 63.3878 82.532 65.5033C81.1819 67.6188 79.518 69.4688 77.6353 71.0533L77.6258 71.079Z" fill="#EBEBF2"/>
</svg>
