<svg width="58" height="53" viewBox="0 0 58 53" fill="none" xmlns="http://www.w3.org/2000/svg">
<path d="M50.3636 26.1385C50.3636 24.7939 50.2155 23.4865 49.9277 22.2162L57.1899 18.4275L50.3882 7.78954L43.1506 11.5633C40.9629 9.78788 38.364 8.42099 35.51 7.56668V0.0339355H21.9149V7.56668C20.6483 7.94555 19.4228 8.42842 18.2714 9.00043C18.1316 9.06729 18 9.14158 17.8602 9.20843C17.7286 9.28272 17.5888 9.34958 17.4572 9.42387C16.3304 10.0405 15.2612 10.7536 14.2578 11.5559L7.03668 7.78954L0.234985 18.4275L7.45613 22.1939C7.18472 23.375 7.03668 24.5711 7.01201 25.7597C7.01201 25.9008 7.01201 26.0494 7.01201 26.1905C7.01201 26.3317 7.01201 26.4654 7.01201 26.6066C7.03668 27.7952 7.18472 28.9912 7.45613 30.1723L0.234985 33.9462L7.03668 44.5841L14.2578 40.8177C16.5031 42.6229 19.1185 43.9675 21.9067 44.7921V52.3397H35.5018V44.7698C36.8589 44.3613 38.1912 43.819 39.4743 43.1504C40.7902 42.4595 41.9992 41.6646 43.0931 40.788L50.3718 44.5841L57.1735 33.9462L49.8948 30.1501C50.1909 28.8575 50.3553 27.5129 50.3553 26.1385H50.3636ZM37.6155 34.793C37.558 34.845 37.5004 34.8896 37.4346 34.9416C37.2043 35.1348 36.9576 35.313 36.7108 35.4913C36.5957 35.573 36.4805 35.6548 36.3572 35.729C36.1516 35.8628 35.9459 35.9891 35.7403 36.1079C35.5758 36.2045 35.4031 36.3011 35.2304 36.3902C35.0577 36.4794 34.885 36.5685 34.704 36.6502C34.482 36.7542 34.2599 36.8508 34.0296 36.9474C33.898 36.9994 33.7582 37.0514 33.6266 37.1034C33.3388 37.2074 33.0427 37.3114 32.7384 37.3931C32.6644 37.4154 32.5903 37.4377 32.5081 37.4599C31.3073 37.7868 30.0325 37.9725 28.7084 37.9725C21.479 37.9725 15.6149 32.6758 15.6149 26.146C15.6149 24.5488 15.9685 23.0259 16.6101 21.6293C16.6429 21.5624 16.6676 21.4956 16.7005 21.4361C16.8157 21.191 16.9473 20.9533 17.0871 20.7156C17.1775 20.567 17.2598 20.4184 17.3585 20.2698C17.449 20.1213 17.5476 19.9801 17.6463 19.839C17.8026 19.6161 17.9671 19.3932 18.1398 19.1778C18.1892 19.1184 18.2303 19.0664 18.2796 19.0069C19.2995 17.8109 20.5825 16.7709 22.1123 15.976C28.3794 12.7074 36.3818 14.6463 40.0006 20.307C40.6586 21.3396 41.1274 22.4242 41.4153 23.5311C41.4317 23.5979 41.4482 23.6722 41.4646 23.7391C41.5304 24.0213 41.5798 24.2962 41.6291 24.5785C41.6456 24.7122 41.662 24.8385 41.6785 24.9722C41.7031 25.1951 41.7196 25.4254 41.736 25.6482C41.7443 25.8265 41.7525 26.0048 41.7525 26.1831C41.7525 26.3614 41.7525 26.5471 41.736 26.7254C41.7278 26.9483 41.7031 27.1786 41.6785 27.4014C41.662 27.5351 41.6456 27.6689 41.6291 27.7952C41.588 28.0774 41.5304 28.3523 41.4646 28.6346C41.4482 28.7089 41.4317 28.7757 41.4153 28.85C41.1274 29.9569 40.6668 31.0415 40.0089 32.0741C39.3509 33.1067 38.5367 34.013 37.6238 34.793H37.6155Z" fill="#EBEBF2"/>
</svg>
