<svg width="109" height="99" viewBox="0 0 109 99" fill="none" xmlns="http://www.w3.org/2000/svg">
<g filter="url(#filter0_d_15_59)">
<path d="M81.8099 7.30695H27.3022C22.0247 7.30695 17.7465 11.1713 17.7465 15.9381V65.1717C17.7465 69.9386 22.0247 73.8029 27.3022 73.8029H81.8099C87.0875 73.8029 91.3657 69.9386 91.3657 65.1717V15.9381C91.3657 11.1713 87.0875 7.30695 81.8099 7.30695Z" fill="url(#paint0_linear_15_59)"/>
</g>
<g filter="url(#filter1_d_15_59)">
<path d="M71.5125 40.5209C71.5125 39.4724 71.3942 38.4432 71.1685 37.4529L76.8547 34.482L71.5232 26.1518L65.8478 29.113C64.128 27.7246 62.0964 26.647 59.8607 25.977V20.0741H49.2085V25.977C48.2089 26.278 47.2629 26.647 46.36 27.1033C46.2526 27.1518 46.1451 27.2101 46.0376 27.2683C45.9301 27.3266 45.8226 27.3751 45.7151 27.4334C44.8337 27.9188 43.9953 28.4722 43.2106 29.1033L37.5459 26.1518L32.2145 34.482L37.8792 37.4335C37.6642 38.3558 37.5459 39.2976 37.5244 40.2296C37.5244 40.3461 37.5244 40.4529 37.5244 40.5695C37.5244 40.6762 37.5244 40.783 37.5244 40.8996C37.5459 41.8316 37.6642 42.7637 37.8792 43.6957L32.2145 46.6472L37.5459 54.9774L43.2106 52.0259C44.9734 53.4434 47.0157 54.4919 49.2085 55.1424V61.0551H59.8607V55.123C60.9248 54.8026 61.9675 54.3754 62.9779 53.8512C64.0097 53.3075 64.9556 52.6861 65.8156 51.9968L71.5232 54.9677L76.8547 46.6375L71.147 43.6666C71.3835 42.6471 71.5017 41.5986 71.5017 40.5209H71.5125ZM61.5268 47.3074C61.5268 47.3074 61.43 47.3851 61.387 47.4239C61.2043 47.5695 61.0108 47.7152 60.8173 47.8511C60.7313 47.9191 60.6346 47.9773 60.5378 48.0356C60.3766 48.1424 60.2154 48.2394 60.0541 48.3365C59.9252 48.4142 59.7854 48.4822 59.6564 48.5598C59.5167 48.6278 59.3877 48.6958 59.248 48.7637C59.076 48.8414 58.8933 48.9191 58.7213 48.9967C58.6138 49.0356 58.5063 49.0841 58.4096 49.123C58.1838 49.2103 57.9474 49.288 57.7109 49.356C57.6464 49.3754 57.5926 49.3948 57.5282 49.4045C56.5823 49.6666 55.5934 49.8026 54.5507 49.8026C48.886 49.8026 44.2855 45.6569 44.2855 40.5306C44.2855 39.2782 44.565 38.084 45.0594 36.9966C45.0809 36.948 45.1024 36.8995 45.1347 36.8413C45.2314 36.6471 45.3281 36.4626 45.4356 36.2781C45.5001 36.1616 45.5754 36.0451 45.6506 35.9286C45.7259 35.8121 45.8011 35.7053 45.8763 35.5888C46.0053 35.4141 46.1236 35.2393 46.2633 35.0742C46.2955 35.0257 46.3385 34.9869 46.3708 34.9383C47.1662 34.0063 48.1766 33.1907 49.3697 32.5596C54.282 29.9965 60.5486 31.5208 63.3863 35.948C63.9023 36.7539 64.2677 37.6083 64.4934 38.4723C64.5042 38.5306 64.5149 38.5791 64.5364 38.6374C64.5902 38.8607 64.6332 39.0743 64.6654 39.2976C64.6762 39.4044 64.6977 39.5015 64.7084 39.6083C64.7299 39.783 64.7407 39.9578 64.7514 40.1423C64.7514 40.2782 64.7514 40.4238 64.7514 40.5597C64.7514 40.7054 64.7514 40.8413 64.7514 40.9869C64.7514 41.1617 64.7299 41.3365 64.7084 41.5112C64.6977 41.618 64.6869 41.7151 64.6654 41.8219C64.6332 42.0452 64.5902 42.2588 64.5364 42.4821C64.5257 42.5404 64.5149 42.5889 64.4934 42.6471C64.2677 43.5112 63.9023 44.3656 63.3863 45.1714C62.8704 45.9773 62.2362 46.6957 61.516 47.2977L61.5268 47.3074Z" fill="white"/>
</g>
<defs>
<filter id="filter0_d_15_59" x="7.08646" y="5.53695" width="94.9393" height="87.8159" filterUnits="userSpaceOnUse" color-interpolation-filters="sRGB">
<feFlood flood-opacity="0" result="BackgroundImageFix"/>
<feColorMatrix in="SourceAlpha" type="matrix" values="0 0 0 0 0 0 0 0 0 0 0 0 0 0 0 0 0 0 127 0" result="hardAlpha"/>
<feOffset dy="8.89"/>
<feGaussianBlur stdDeviation="5.33"/>
<feColorMatrix type="matrix" values="0 0 0 0 0.117647 0 0 0 0 0.521569 0 0 0 0 1 0 0 0 0.4 0"/>
<feBlend mode="normal" in2="BackgroundImageFix" result="effect1_dropShadow_15_59"/>
<feBlend mode="normal" in="SourceGraphic" in2="effect1_dropShadow_15_59" result="shape"/>
</filter>
<filter id="filter1_d_15_59" x="24.7145" y="16.3241" width="59.6403" height="55.9811" filterUnits="userSpaceOnUse" color-interpolation-filters="sRGB">
<feFlood flood-opacity="0" result="BackgroundImageFix"/>
<feColorMatrix in="SourceAlpha" type="matrix" values="0 0 0 0 0 0 0 0 0 0 0 0 0 0 0 0 0 0 127 0" result="hardAlpha"/>
<feOffset dy="3.75"/>
<feGaussianBlur stdDeviation="3.75"/>
<feColorMatrix type="matrix" values="0 0 0 0 0.117647 0 0 0 0 0.521569 0 0 0 0 1 0 0 0 0.4 0"/>
<feBlend mode="normal" in2="BackgroundImageFix" result="effect1_dropShadow_15_59"/>
<feBlend mode="normal" in="SourceGraphic" in2="effect1_dropShadow_15_59" result="shape"/>
</filter>
<linearGradient id="paint0_linear_15_59" x1="20.5412" y1="9.84096" x2="81.662" y2="77.5093" gradientUnits="userSpaceOnUse">
<stop stop-color="#35C9E2" stop-opacity="0.5"/>
<stop offset="1" stop-color="#35E6BB"/>
</linearGradient>
</defs>
</svg>
