<svg width="35" height="35" viewBox="0 0 35 35" fill="none" xmlns="http://www.w3.org/2000/svg">
<path d="M26.7969 0H8.20312C3.67266 0 0 3.67266 0 8.20312V26.7969C0 31.3273 3.67266 35 8.20312 35H26.7969C31.3273 35 35 31.3273 35 26.7969V8.20312C35 3.67266 31.3273 0 26.7969 0Z" fill="#E14E1D"/>
<path d="M6.5625 5.19531L7.73965 18.4014H22.8758L22.3679 24.0656L17.4944 25.3833L12.6301 24.0676L12.3048 20.4306H7.92148L8.54834 27.4416L17.4934 29.9261L26.4499 27.4416L27.6507 14.0349H11.7337L11.3341 9.56279H28.0463L28.4375 5.19531H6.5625Z" fill="white"/>
<path d="M17.5 5.19531H6.5625L7.73965 18.4014H17.5V14.0349H11.7337L11.3341 9.56279H17.5V5.19531ZM17.5 25.3814L17.4944 25.3833L12.6301 24.0676L12.3048 20.4306H7.92148L8.54834 27.4416L17.4934 29.9261L17.5001 29.9242L17.5 25.3814Z" fill="#EBEBEB"/>
</svg>
