<svg width="46" height="53" viewBox="0 0 46 53" fill="none" xmlns="http://www.w3.org/2000/svg">
<path d="M46 9.9375C46 6.2834 43.0531 3.3125 39.4286 3.3125H6.57143C2.94688 3.3125 0 6.2834 0 9.9375V43.0625C0 46.7166 2.94688 49.6875 6.57143 49.6875H39.4286C43.0531 49.6875 46 46.7166 46 43.0625V9.9375ZM18.5746 46.0541C15.1143 46.0541 13.1121 44.2529 12.0853 42.0687L15.6071 39.926C16.2848 41.1371 16.9009 42.1619 18.3897 42.1619C19.8067 42.1619 20.7103 41.6029 20.7103 39.4187V24.6057H25.033V39.4809C25.033 43.9941 22.4045 46.0541 18.5746 46.0541ZM27.3844 41.6029L30.9063 39.5533C31.8304 41.075 33.042 42.2033 35.1674 42.2033C36.954 42.2033 38.104 41.3027 38.104 40.0502C38.104 38.5596 36.9335 38.0316 34.9518 37.1518L33.8737 36.6859C30.7522 35.3506 28.6884 33.6633 28.6884 30.1127C28.6884 26.8416 31.1629 24.3572 35.0134 24.3572C37.7652 24.3572 39.7366 25.3199 41.1536 27.8457L37.7857 30.0195C37.0464 28.6842 36.2455 28.1562 35.0031 28.1562C33.7402 28.1562 32.9393 28.9637 32.9393 30.0195C32.9393 31.3238 33.7402 31.8518 35.5987 32.6695L36.6768 33.1354C40.3527 34.7191 42.4165 36.3443 42.4165 39.9881C42.4165 43.901 39.3567 46.0541 35.2598 46.0541C31.2451 46.0541 28.6473 44.1287 27.3844 41.6029Z" fill="black"/>
</svg>
