<svg width="38" height="38" viewBox="0 0 38 38" fill="none" xmlns="http://www.w3.org/2000/svg">
<path d="M2.375 2.375H35.625V35.625H2.375V2.375Z" fill="#F5DE19"/>
<path d="M24.7107 28.3515C24.9945 28.9266 25.4347 29.41 25.9809 29.7461C26.527 30.0822 27.1569 30.2574 27.7982 30.2515C29.0926 30.2515 29.9203 29.6044 29.9203 28.7078C29.9203 27.639 29.07 27.2567 27.645 26.6332L26.8636 26.2984C24.6074 25.3377 23.1111 24.1347 23.1111 21.5911C23.1111 19.2482 24.8924 17.4634 27.6866 17.4634C28.5911 17.3982 29.4948 17.6007 30.285 18.0456C31.0751 18.4906 31.7169 19.1582 32.1302 19.9654L29.6875 21.527C29.5283 21.1268 29.2512 20.7844 28.8931 20.5452C28.5349 20.306 28.1125 20.1813 27.6818 20.1875C27.4939 20.1687 27.3042 20.1892 27.1246 20.2478C26.9451 20.3064 26.7797 20.4017 26.6391 20.5277C26.4984 20.6537 26.3856 20.8077 26.3077 20.9797C26.2298 21.1518 26.1886 21.3381 26.1868 21.527C26.1868 22.4639 26.7675 22.8439 28.1081 23.427L28.8895 23.7619C31.5448 24.9007 33.0458 26.0609 33.0458 28.6698C33.0458 31.483 30.8358 33.0244 27.8683 33.0244C26.7121 33.0973 25.5595 32.8344 24.5493 32.2675C23.5391 31.7005 22.7143 30.8537 22.1742 29.8288L24.7107 28.3515ZM13.6729 28.6223C14.1633 29.4927 14.6098 30.229 15.6833 30.229C16.7093 30.229 17.3577 29.8276 17.3577 28.266V17.6415H20.482V28.3076C20.482 31.5424 18.582 33.0149 15.8163 33.0149C14.8387 33.0683 13.8678 32.8247 13.0313 32.316C12.1947 31.8073 11.5317 31.0574 11.1293 30.1649L13.6729 28.6223Z" fill="black"/>
</svg>
