<svg width="48" height="38" viewBox="0 0 48 38" fill="none" xmlns="http://www.w3.org/2000/svg">
<path d="M23.7225 33.5469C23.565 33.5469 23.4075 33.5024 23.265 33.4281L21.825 32.5821C21.6075 32.4633 21.7125 32.4188 21.7875 32.3965C22.0725 32.3 22.1325 32.2778 22.44 32.0996C22.47 32.0848 22.515 32.0922 22.545 32.1071L23.655 32.7602C23.6925 32.7824 23.7525 32.7824 23.79 32.7602L28.125 30.2813C28.1625 30.259 28.1925 30.2145 28.1925 30.1625V25.2121C28.1925 25.1602 28.17 25.1156 28.125 25.0934L23.79 22.6219C23.7525 22.5996 23.7 22.5996 23.655 22.6219L19.32 25.0934C19.275 25.1156 19.2525 25.1676 19.2525 25.2121V30.1625C19.2525 30.2071 19.2825 30.2516 19.32 30.2738L20.505 30.9492C21.15 31.2684 21.5475 30.8899 21.5475 30.5188V25.6278C21.5475 25.561 21.6 25.5016 21.675 25.5016H22.2225C22.29 25.5016 22.35 25.5535 22.35 25.6278V30.5188C22.35 31.3723 21.885 31.8547 21.0675 31.8547C20.82 31.8547 20.6175 31.8547 20.07 31.5875L18.93 30.9418C18.6525 30.7785 18.4725 30.4817 18.4725 30.1625V25.2121C18.4725 24.893 18.645 24.5887 18.93 24.4328L23.265 21.9539C23.5425 21.7981 23.9025 21.7981 24.1725 21.9539L28.5075 24.4328C28.785 24.5961 28.965 24.893 28.965 25.2121V30.1625C28.965 30.4817 28.7925 30.786 28.5075 30.9418L24.1725 33.4207C24.045 33.5024 23.8875 33.5469 23.7225 33.5469ZM27.225 28.6633C27.225 27.7356 26.595 27.4906 25.26 27.3125C23.91 27.1344 23.775 27.0453 23.775 26.7336C23.775 26.4739 23.8875 26.1324 24.885 26.1324C25.7775 26.1324 26.1075 26.3254 26.2425 26.9192C26.2575 26.9785 26.3025 27.0156 26.3625 27.0156H26.925C26.9625 27.0156 26.9925 27.0008 27.015 26.9785C27.0375 26.9488 27.0525 26.9192 27.045 26.8821C26.955 25.8578 26.2725 25.3828 24.885 25.3828C23.6475 25.3828 22.9125 25.9024 22.9125 26.7633C22.9125 27.7059 23.6475 27.9582 24.8325 28.077C26.25 28.218 26.3625 28.4184 26.3625 28.693C26.3625 29.1754 25.9725 29.3758 25.0575 29.3758C23.91 29.3758 23.655 29.0938 23.5725 28.5297C23.565 28.4703 23.5125 28.4258 23.445 28.4258H22.8825C22.815 28.4258 22.755 28.4778 22.755 28.552C22.755 29.2719 23.1525 30.1328 25.05 30.1328C26.4375 30.1328 27.225 29.5985 27.225 28.6633ZM31.3125 24.9449C31.3125 25.3977 30.9375 25.7688 30.48 25.7688C30.0225 25.7688 29.6475 25.3977 29.6475 24.9449C29.6475 24.4774 30.0375 24.1211 30.48 24.1211C30.93 24.1137 31.3125 24.4774 31.3125 24.9449ZM31.1775 24.9449C31.1775 24.559 30.8625 24.2547 30.4725 24.2547C30.09 24.2547 29.775 24.559 29.775 24.9449C29.775 25.3309 30.09 25.6426 30.4725 25.6426C30.8625 25.6352 31.1775 25.3235 31.1775 24.9449ZM30.84 25.4051H30.645C30.6375 25.3606 30.6075 25.1231 30.6075 25.1156C30.5925 25.0637 30.5775 25.034 30.51 25.034H30.345V25.4051H30.165V24.4774H30.4875C30.6 24.4774 30.8175 24.4774 30.8175 24.7223C30.8175 24.893 30.705 24.9301 30.6375 24.9524C30.765 24.9598 30.7725 25.0414 30.795 25.1602C30.8025 25.2344 30.8175 25.3606 30.84 25.4051ZM30.63 24.752C30.63 24.6258 30.54 24.6258 30.495 24.6258H30.345V24.8856H30.4875C30.6075 24.8856 30.63 24.8039 30.63 24.752ZM10.2975 14.1758C10.2975 13.9754 10.1925 13.7973 10.02 13.7008L5.4225 11.0809C5.3475 11.0363 5.2575 11.0141 5.1675 11.0067H5.1225C5.0325 11.0067 4.95 11.0363 4.8675 11.0809L0.2775 13.7008C0.105 13.7973 0 13.9828 0 14.1758L0.0075 21.2266C0.0075 21.3231 0.06 21.4121 0.1425 21.4641C0.225 21.516 0.33 21.516 0.42 21.4641L3.15 19.9129C3.3225 19.809 3.4275 19.6309 3.4275 19.4379V16.1426C3.4275 15.9496 3.5325 15.7641 3.705 15.6676L4.8675 15.0071C4.9575 14.9551 5.0475 14.9328 5.145 14.9328C5.2425 14.9328 5.34 14.9551 5.4225 15.0071L6.585 15.6676C6.7575 15.7641 6.8625 15.9496 6.8625 16.1426V19.4379C6.8625 19.6309 6.9675 19.8164 7.14 19.9129L9.87 21.4641C9.9525 21.516 10.065 21.516 10.1475 21.4641C10.23 21.4196 10.2825 21.3231 10.2825 21.2266L10.2975 14.1758ZM35.4375 6.47932V19.5715C35.4375 19.7645 35.3325 19.95 35.16 20.0465L30.5625 22.6738C30.39 22.7703 30.18 22.7703 30.0075 22.6738L25.41 20.0465C25.2375 19.95 25.1325 19.7645 25.1325 19.5715V14.3168C25.1325 14.1238 25.2375 13.9383 25.41 13.8418L30.0075 11.2145C30.18 11.118 30.39 11.118 30.5625 11.2145L31.71 11.8676C31.8375 11.9418 32.0025 11.8453 32.0025 11.7043V4.72776C32.0025 4.51994 32.2275 4.38635 32.415 4.49026L35.1525 6.00432C35.325 6.09338 35.4375 6.27893 35.4375 6.47932ZM31.9875 16.0461C31.9875 15.9942 31.9575 15.9496 31.92 15.9274L30.345 15.0219C30.3 14.9996 30.2475 14.9996 30.2025 15.0219L28.6275 15.9274C28.5825 15.9496 28.56 15.9942 28.56 16.0461V17.8496C28.56 17.9016 28.59 17.9461 28.6275 17.9684L30.2025 18.8664C30.2475 18.8887 30.3 18.8887 30.3375 18.8664L31.9125 17.9684C31.9575 17.9461 31.98 17.9016 31.98 17.8496V16.0461H31.9875ZM47.7225 15.9942C47.895 15.8977 48 15.7121 48 15.5192V14.25C48 14.0571 47.895 13.8715 47.7225 13.775L43.155 11.1477C42.9825 11.0512 42.7725 11.0512 42.6 11.1477L38.0025 13.775C37.83 13.8715 37.725 14.0571 37.725 14.25V19.5047C37.725 19.7051 37.83 19.8832 38.0025 19.9797L42.57 22.5551C42.735 22.6516 42.945 22.6516 43.1175 22.5551L45.8775 21.0336C46.065 20.9297 46.065 20.6625 45.8775 20.5586L41.25 17.9313C41.16 17.8793 41.1075 17.7903 41.1075 17.6938V16.0461C41.1075 15.9496 41.16 15.8606 41.25 15.8086L42.69 14.9848C42.7725 14.9328 42.885 14.9328 42.9675 14.9848L44.4075 15.8086C44.49 15.8606 44.55 15.9496 44.55 16.0461V17.3375C44.55 17.5453 44.7825 17.6789 44.97 17.575L47.7225 15.9942ZM41.925 16.2539C41.895 16.2762 41.8725 16.3059 41.8725 16.343V17.3524C41.8725 17.3895 41.895 17.4266 41.925 17.4414L42.81 17.9461C42.84 17.9684 42.885 17.9684 42.915 17.9461L43.8 17.4414C43.83 17.4192 43.8525 17.3895 43.8525 17.3524V16.343C43.8525 16.3059 43.83 16.2688 43.8 16.2539L42.915 15.7492C42.885 15.727 42.84 15.727 42.81 15.7492L41.925 16.2539ZM22.86 19.4824V14.2574C22.86 14.0645 22.74 13.8789 22.5675 13.7824L17.985 11.1699C17.8275 11.0809 17.61 11.066 17.43 11.1699L12.8475 13.7824C12.675 13.8789 12.555 14.0571 12.555 14.2574V19.4824C12.555 19.6903 12.6975 19.8684 12.855 19.9574L17.445 22.5699C17.625 22.6738 17.835 22.6664 18 22.5699L22.575 19.9574C22.71 19.8832 22.8075 19.7571 22.845 19.6086C22.8525 19.5715 22.86 19.527 22.86 19.4824ZM17.2875 10.2125L17.2275 10.2496H17.31L17.2875 10.2125ZM23.0025 19.8758L22.9725 19.8238V19.8906L23.0025 19.8758Z" fill="#14AE5C"/>
</svg>
