<svg width="38" height="46" viewBox="0 0 38 46" fill="none" xmlns="http://www.w3.org/2000/svg">
<path d="M19 20.1023C20.9172 20.1023 22.4715 18.5721 22.4715 16.6845C22.4715 14.797 20.9172 13.2668 19 13.2668C17.0827 13.2668 15.5284 14.797 15.5284 16.6845C15.5284 18.5721 17.0827 20.1023 19 20.1023Z" fill="#61DAFB"/>
<path d="M19 29.253C21.725 31.8622 24.4126 33.4057 26.5776 33.4057C27.2868 33.4057 27.9587 33.2587 28.5187 32.928C30.4597 31.8255 31.169 29.0692 30.4971 25.137C30.3851 24.4387 30.2358 23.7405 30.0491 23.0055C30.7957 22.785 31.4676 22.5645 32.1395 22.344C35.9096 20.9107 38 18.9262 38 16.758C38 14.553 35.9096 12.5685 32.1395 11.172C31.4676 10.9147 30.7957 10.6942 30.0491 10.5105C30.2358 9.77549 30.3851 9.07724 30.4971 8.37899C31.1316 4.37324 30.4224 1.58025 28.4813 0.477749C27.9214 0.147 27.2495 0 26.5403 0C24.4126 0 21.6876 1.5435 18.9627 4.15274C16.2751 1.5435 13.5874 0 11.4224 0C10.7132 0 10.0413 0.147 9.48134 0.477749C7.54028 1.58025 6.83104 4.33649 7.50295 8.26874C7.61493 8.96699 7.76424 9.66524 7.95088 10.4002C7.20432 10.6207 6.53242 10.8412 5.86051 11.0617C2.09037 12.495 0 14.4795 0 16.6477C0 18.8527 2.09037 20.8372 5.86051 22.2337C6.53242 22.491 7.20432 22.7115 7.95088 22.8952C7.76424 23.6302 7.61493 24.3285 7.50295 25.0267C6.86837 28.959 7.5776 31.752 9.48134 32.8177C10.0413 33.1485 10.7132 33.2955 11.4224 33.2955C13.5874 33.369 16.275 31.8255 19 29.253ZM16.9096 24.2917C17.5815 24.3285 18.2908 24.3285 19 24.3285C19.7092 24.3285 20.4185 24.3285 21.0904 24.2917C20.4185 25.1737 19.7092 25.9822 19 26.754C18.2908 25.9822 17.5815 25.1737 16.9096 24.2917ZM12.2809 20.5065C12.6542 21.1312 12.9902 21.7192 13.4008 22.3072C12.2436 22.1602 11.1611 21.9765 10.1159 21.756C10.4519 20.7637 10.8251 19.7347 11.2731 18.7057C11.5717 19.2937 11.9077 19.9185 12.2809 20.5065ZM10.1159 11.6497C11.1611 11.4292 12.2436 11.2455 13.4008 11.0985C13.0275 11.6865 12.6542 12.2745 12.2809 12.8992C11.9077 13.524 11.5717 14.112 11.2731 14.7367C10.7878 13.671 10.4145 12.642 10.1159 11.6497ZM12.169 16.6845C12.6542 15.6922 13.1768 14.7 13.7741 13.7077C14.334 12.7522 14.9686 11.7967 15.6031 10.8412C16.723 10.7677 17.8428 10.731 19 10.731C20.1945 10.731 21.3143 10.7677 22.3969 10.8412C23.0688 11.7967 23.666 12.7522 24.2259 13.7077C24.8232 14.7 25.3458 15.6922 25.831 16.6845C25.3458 17.6767 24.8232 18.669 24.2259 19.6612C23.666 20.6167 23.0314 21.5722 22.3969 22.5277C21.277 22.6012 20.1572 22.638 19 22.638C17.8055 22.638 16.6857 22.6012 15.6031 22.5277C14.9312 21.5722 14.334 20.6167 13.7741 19.6612C13.1768 18.669 12.6542 17.6767 12.169 16.6845ZM26.7642 14.7L25.7564 12.8625C25.3831 12.2377 25.0472 11.6497 24.6365 11.0617C25.7937 11.2087 26.8762 11.3925 27.9214 11.613C27.5855 12.642 27.2122 13.671 26.7642 14.7ZM26.7642 18.669C27.2122 19.698 27.5855 20.727 27.9214 21.7192C26.8762 21.9397 25.7937 22.1235 24.6365 22.2705C25.0098 21.6825 25.3831 21.0945 25.7564 20.4697C26.0923 19.9185 26.4283 19.2937 26.7642 18.669ZM27.6228 31.4212C27.3242 31.605 26.9509 31.6785 26.5403 31.6785C24.7112 31.6785 22.4342 30.2085 20.1945 28.0035C21.277 26.8642 22.3222 25.578 23.3674 24.1447C25.1218 23.9977 26.8016 23.7405 28.3694 23.373C28.556 24.0345 28.668 24.696 28.78 25.3575C29.3026 28.4812 28.8919 30.723 27.6228 31.4212ZM29.5639 12.054C33.7446 13.23 36.2456 15.0307 36.2456 16.6845C36.2456 18.1177 34.5285 19.551 31.5049 20.6902C30.9077 20.9107 30.2358 21.1312 29.5639 21.315C29.0786 19.8082 28.4813 18.2647 27.7348 16.6845C28.4813 15.1042 29.1159 13.5607 29.5639 12.054ZM26.5776 1.6905C26.9882 1.6905 27.3242 1.764 27.6601 1.94775C28.8919 2.646 29.3399 4.85099 28.8173 8.01149C28.7053 8.63624 28.556 9.29774 28.4067 9.99599C26.8389 9.66524 25.1591 9.40799 23.4047 9.22424C22.3969 7.79099 21.3143 6.50474 20.2318 5.36549C22.4715 3.19725 24.7485 1.6905 26.5776 1.6905ZM21.0904 9.07724C20.4185 9.04049 19.7092 9.04049 19 9.04049C18.2908 9.04049 17.5815 9.04049 16.9096 9.07724C17.5815 8.19524 18.2908 7.38674 19 6.61499C19.7092 7.38674 20.4185 8.23199 21.0904 9.07724ZM10.3772 1.94775C10.6758 1.764 11.0491 1.6905 11.4597 1.6905C13.2888 1.6905 15.5658 3.1605 17.8055 5.36549C16.723 6.50474 15.6778 7.79099 14.6326 9.22424C12.8782 9.37124 11.1984 9.62849 9.63065 9.99599C9.44401 9.33449 9.33202 8.67299 9.22004 8.01149C8.69745 4.88774 9.10806 2.68275 10.3772 1.94775ZM8.43615 21.315C4.2554 20.139 1.75442 18.3382 1.75442 16.6845C1.75442 15.2512 3.47151 13.818 6.49509 12.6787C7.09234 12.4582 7.76424 12.2377 8.43615 12.054C8.92141 13.5607 9.51866 15.1042 10.2652 16.6845C9.51866 18.2647 8.88409 19.845 8.43615 21.315ZM9.22004 25.3575C9.33202 24.7327 9.48134 24.0712 9.63065 23.373C11.1984 23.7037 12.8782 23.961 14.6326 24.1447C15.6405 25.578 16.723 26.8642 17.8055 28.0035C15.5658 30.1717 13.2888 31.6785 11.4597 31.6785C11.0491 31.6785 10.7132 31.605 10.3772 31.4212C9.10806 30.723 8.69745 28.4812 9.22004 25.3575ZM7.65226 40.4984C8.47348 39.5062 8.51081 38.4037 8.06287 37.3012C7.61493 36.1987 6.68173 35.6842 5.52456 35.6475C4.14342 35.6107 2.72495 35.6475 1.34381 35.6475H1.08251V45.1657H2.20236V41.5642H3.95678C4.18075 41.5642 4.36739 41.6377 4.47937 41.8214L6.71906 45.2392C6.75638 45.3127 6.86837 45.4229 6.94303 45.4229H8.39882C7.50295 44.0632 6.6444 42.7769 5.74853 41.4539C6.53242 41.3437 7.20432 41.0864 7.65226 40.4984ZM2.20236 40.4249V36.7867H2.61297C3.47151 36.7867 4.36739 36.75 5.22593 36.8235C6.23379 36.8602 6.94303 37.6319 6.94303 38.6242C6.94303 39.6164 6.12181 40.3882 5.11395 40.4249C4.21807 40.4617 3.3222 40.4249 2.20236 40.4249ZM16.6483 40.9027C16.0511 38.3302 13.6621 37.6687 11.833 38.4772C10.4145 39.1019 9.77996 40.3147 9.74263 41.8214C9.70531 42.9607 10.0413 43.9897 10.9371 44.7614C11.945 45.6434 13.1768 45.7537 14.446 45.5332C15.1552 45.3862 15.7898 45.0554 16.275 44.5409C16.0884 44.2837 15.9018 44.0264 15.7151 43.8059C14.6699 44.6879 13.5128 44.9819 12.2436 44.3939C11.4224 43.9897 11.0118 42.9974 10.9371 42.2624H16.723V41.7847C16.7603 41.4539 16.723 41.1599 16.6483 40.9027ZM11.0118 41.4907C10.8998 40.3882 12.0196 39.2122 13.2515 39.2122C14.6699 39.1754 15.5658 40.0207 15.6031 41.4907H11.0118ZM22.4715 38.2934C21.9116 38.1832 21.3143 38.1465 20.7544 38.1832C19.8585 38.2567 19.0747 38.6609 18.4401 39.3224C18.6267 39.5797 18.776 39.8369 19 40.1309C19.0747 40.0574 19.1493 39.9839 19.224 39.9472C19.8212 39.3959 20.5305 39.1019 21.389 39.1754C22.0609 39.2122 22.6955 39.4327 22.8821 40.0942C23.0314 40.6087 22.9941 41.1599 23.0314 41.7112C22.9195 41.7112 22.8821 41.6744 22.8448 41.6377C21.9489 40.9027 20.9411 40.7557 19.8585 41.0129C18.8507 41.2702 18.2161 42.0419 18.1415 43.0342C18.0668 44.1734 18.5894 45.0187 19.5972 45.4229C20.2318 45.6802 20.9411 45.6802 21.613 45.5332C22.1356 45.4229 22.3595 45.1289 23.1061 44.7247V45.2024H24.1513C24.1513 43.7324 24.1886 41.9317 24.1513 40.2412C24.1513 39.1754 23.5167 38.514 22.4715 38.2934ZM22.9941 42.9239C22.9568 43.0342 22.9941 43.1444 22.9941 43.2547C22.9941 44.0264 22.8075 44.2837 22.0609 44.5777C21.5383 44.7614 20.9784 44.8349 20.4185 44.6512C19.7839 44.4674 19.336 43.9162 19.336 43.2914C19.2986 42.6667 19.7092 42.0419 20.3438 41.8582C21.2024 41.5642 21.9862 41.7479 22.6955 42.2624C22.9195 42.4462 23.0688 42.6299 22.9941 42.9239ZM28.8173 39.2857C29.7878 38.9917 30.6837 39.1754 31.3556 39.9839L31.4676 40.0574C31.7289 39.8369 31.9528 39.6164 32.2515 39.3592C32.1395 39.2489 32.1022 39.1754 32.0275 39.0652C30.945 37.9259 28.8173 37.7789 27.5108 38.6977C25.6817 40.0207 25.7191 42.5932 26.6149 43.9529C27.4735 45.2392 28.7053 45.6802 30.1611 45.4964C31.0196 45.3862 31.7289 44.9819 32.2888 44.2837C32.0275 44.0632 31.7662 43.8427 31.5049 43.5854C31.4303 43.6589 31.3929 43.6957 31.3556 43.7692C30.3477 44.8717 28.668 44.7614 27.7721 43.5854C27.2495 42.8872 27.1375 42.0787 27.2868 41.2702C27.3615 40.3514 27.8468 39.6164 28.8173 39.2857ZM36.5815 44.2837C36.5069 44.3204 36.4696 44.3572 36.4696 44.3572C36.1709 44.5777 35.8723 44.6144 35.5363 44.5042C35.2004 44.3572 35.1631 44.0632 35.1257 43.7692V39.5797C35.1257 39.5062 35.1257 39.6532 35.1631 39.2857H36.5815V38.1832H35.0884V36.3457H33.9686V38.3302H32.998C32.9234 38.3302 32.8114 38.4037 32.8114 38.4772C32.7741 38.7344 32.8114 38.9182 32.8114 39.2857H34.0059V43.9897C34.0059 44.5777 34.1552 45.0922 34.6778 45.3862C35.2377 45.7169 36.3202 45.6434 36.8055 45.2392C36.8802 45.2024 36.9175 45.0554 36.9175 45.0187C36.8055 44.7982 36.6935 44.5409 36.5815 44.2837Z" fill="#61DAFB"/>
</svg>
