<svg width="54" height="24" viewBox="0 0 54 24" fill="none" xmlns="http://www.w3.org/2000/svg">
<g clip-path="url(#clip0_138_30)">
<path d="M20.5157 11.7941C19.7963 11.7941 19.2113 12.0067 18.7628 12.4314C18.3145 12.8567 18.087 13.4141 18.087 14.0971C18.087 14.451 18.1434 14.7738 18.2547 15.0694C18.3661 15.3658 18.5394 15.6403 18.7722 15.8884C19.0051 16.1365 19.4713 16.4738 20.166 16.9026C21.0186 17.422 21.5764 17.8435 21.8442 18.1727C22.1121 18.5015 22.2451 18.8462 22.2451 19.2055C22.2451 19.6866 22.0865 20.0707 21.7603 20.3593C21.4336 20.6482 20.9967 20.792 20.4551 20.792C19.8838 20.792 19.3861 20.591 18.9587 20.192C18.5313 19.7922 18.3156 19.2634 18.3107 18.6007H18.0449V21.0061H18.3107C18.3919 20.7783 18.5041 20.6619 18.6511 20.6619C18.7217 20.6619 18.8873 20.7104 19.1452 20.8013C19.7726 21.0242 20.2878 21.1316 20.6928 21.1316C21.3907 21.1316 21.9865 20.8878 22.4828 20.392C22.9785 19.8964 23.2287 19.2986 23.2287 18.6007C23.2287 18.0596 23.0635 17.5781 22.7393 17.1585C22.415 16.7383 21.7844 16.2495 20.842 15.6883C20.031 15.202 19.5046 14.806 19.2617 14.4972C19.0184 14.1889 18.8934 13.8479 18.8934 13.4736C18.8934 13.0689 19.0424 12.7438 19.3363 12.5012C19.6301 12.2586 20.0152 12.1384 20.4971 12.1384C21.0392 12.1384 21.4912 12.299 21.8489 12.6223C22.2062 12.9461 22.4128 13.3948 22.4736 13.9714H22.7393V11.8872H22.4922C22.462 11.9934 22.434 12.0613 22.4083 12.0919C22.3833 12.1222 22.3352 12.1384 22.2638 12.1384C22.1778 12.1384 22.0246 12.1023 21.8069 12.0313C21.3407 11.8747 20.9109 11.7941 20.5156 11.7941M29.2001 11.7941C28.3236 11.7941 27.5277 12.0004 26.8087 12.4129C26.0886 12.8247 25.5185 13.3966 25.0979 14.125C24.6773 14.8534 24.4687 15.6269 24.4687 16.4513C24.4687 17.5587 24.8319 18.5454 25.5642 19.4103C26.2968 20.2745 27.1747 20.813 28.1933 21.0201C28.4262 21.1411 28.7594 21.4538 29.1956 21.9599C29.6871 22.5309 30.103 22.9428 30.4449 23.1881C30.7791 23.4286 31.1508 23.6125 31.5449 23.7325C31.9352 23.851 32.3569 23.9093 32.813 23.9093C33.3653 23.9093 33.8597 23.8134 34.2953 23.6162L34.1975 23.3742C33.9447 23.4652 33.675 23.5091 33.391 23.5091C33.0056 23.5091 32.6161 23.3823 32.2256 23.1276C31.8357 22.8723 31.3481 22.3852 30.7666 21.6667C30.4932 21.3225 30.3045 21.1052 30.1978 21.0201C31.3124 20.8028 32.2288 20.2638 32.9435 19.4009C33.658 18.5386 34.0156 17.5544 34.0156 16.4512C34.0156 15.1415 33.5487 14.0407 32.6219 13.1433C31.6942 12.2458 30.5534 11.7941 29.2002 11.7941M34.6217 11.7941L34.6357 12.0779C35.2192 12.0779 35.5462 12.2494 35.6193 12.5943C35.6465 12.7178 35.6589 12.9455 35.6612 13.2735L35.6565 19.5499C35.6516 20.0186 35.5848 20.3179 35.4561 20.4478C35.3272 20.5767 35.1094 20.6575 34.7942 20.6896L34.7802 20.9735H40.5978L40.7471 19.5499H40.4813C40.4053 19.9376 40.2314 20.2155 39.9546 20.3733C39.6769 20.5323 39.1859 20.6106 38.4769 20.6106H37.9267C37.2886 20.6106 36.9195 20.3804 36.8219 19.9173C36.8019 19.8258 36.7949 19.7275 36.794 19.6196L36.8172 13.2735C36.8172 12.8055 36.8764 12.492 36.9991 12.3384C37.1231 12.1854 37.3466 12.0999 37.6703 12.0779L37.6564 11.7941H34.6217ZM29.2934 12.1383C30.2821 12.1383 31.0893 12.527 31.7128 13.3108C32.3361 14.0949 32.6452 15.1695 32.6452 16.5304C32.6452 17.8199 32.3317 18.8523 31.7035 19.6289C31.0753 20.4053 30.2392 20.7921 29.2002 20.7921C28.2021 20.7921 27.3926 20.3932 26.7715 19.5918C26.1509 18.7902 25.8439 17.7495 25.8439 16.4699C25.8439 15.1549 26.1547 14.1023 26.7809 13.3154C27.4066 12.5295 28.2446 12.1384 29.2935 12.1384M42.6724 13.4878C42.5304 13.4878 42.4223 13.5355 42.3414 13.632C42.2586 13.728 42.2332 13.8443 42.2621 13.9855C42.2901 14.1226 42.3676 14.2426 42.4906 14.3438C42.6129 14.4448 42.7449 14.4973 42.8868 14.4973C43.024 14.4973 43.1287 14.4448 43.2038 14.3438C43.2789 14.2427 43.3018 14.1226 43.2737 13.9855C43.2448 13.8443 43.17 13.728 43.0546 13.6319C42.9379 13.5355 42.8096 13.4876 42.6724 13.4876M46.5088 14.4507C46.2677 15.3764 45.7451 15.8773 44.9426 15.9581L44.9519 16.2233H45.8889L45.8702 19.3591C45.8717 19.8952 45.8881 20.2522 45.9261 20.4339C46.0185 20.8687 46.3031 21.0899 46.7792 21.0899C47.4683 21.0897 48.1908 20.671 48.9468 19.8336L48.7185 19.6383C48.1727 20.1896 47.6902 20.4664 47.2687 20.4664C47.0097 20.4664 46.8492 20.3178 46.7885 20.0244C46.772 19.9531 46.7653 19.8699 46.7653 19.7731L46.7746 16.2233H48.2057L48.1917 15.7999H46.7792V14.4507H46.5088ZM52.0421 15.6324C51.2416 15.6324 50.5906 16.0203 50.0843 16.7909C49.5807 17.5628 49.4248 18.4181 49.6228 19.3591C49.7393 19.9103 49.9715 20.3374 50.3267 20.6385C50.6814 20.9395 51.1313 21.0899 51.6693 21.0899C52.1701 21.0899 52.8674 20.9632 53.161 20.7083C53.4552 20.4535 53.7263 20.0407 53.9768 19.4754L53.7764 19.266C53.3768 19.9994 52.5709 20.3687 51.9629 20.3687C51.1272 20.3687 50.6154 19.911 50.4246 19.0008C50.399 18.8779 50.3803 18.7536 50.3687 18.6286C51.3629 18.4715 52.1164 18.1933 52.6249 17.7912C53.133 17.3888 53.6432 16.9623 53.5479 16.5118C53.4912 16.244 53.352 16.0334 53.1376 15.8744C52.9206 15.7153 52.3572 15.6324 52.0421 15.6324ZM43.2924 15.665L41.5676 16.0605V16.3675L42.1643 16.2931C42.4532 16.2931 42.6234 16.4236 42.677 16.6839C42.6951 16.7709 42.7066 16.8933 42.7097 17.0468L42.691 19.8615C42.6862 20.251 42.6429 20.4774 42.5559 20.5454C42.468 20.6136 42.2364 20.6478 41.8612 20.6479L41.852 20.913H44.5882L44.5836 20.6478C44.2034 20.6478 43.9569 20.6179 43.8471 20.5593C43.7391 20.5014 43.6646 20.3956 43.6327 20.2338C43.6079 20.1171 43.597 19.9161 43.5954 19.6383L43.6047 15.665H43.2924ZM51.604 16.1861C51.7706 16.1861 51.9314 16.2503 52.0934 16.3768C52.2533 16.5029 52.3506 16.6431 52.3825 16.7955C52.5386 17.544 51.8738 18.0612 50.3779 18.3494C50.3353 17.8039 50.43 17.3084 50.6717 16.8607C50.9115 16.4133 51.2238 16.1861 51.604 16.1861Z" fill="#003B57"/>
<path d="M16.6523 1.04761H1.80879C0.813902 1.04761 0 1.86003 0 2.85287V19.1906C0 20.1834 0.813902 20.9958 1.80879 20.9958H11.585C11.4741 16.1409 13.1352 6.71898 16.6523 1.04761Z" fill="#0F80CC"/>
<path d="M16.113 1.57422H1.80882C1.10239 1.57422 0.527588 2.1478 0.527588 2.85296V17.9985C3.76717 16.7577 8.62938 15.687 11.9913 15.7356C12.6669 12.2099 14.6525 5.30043 16.113 1.57422Z" fill="url(#paint0_linear_138_30)"/>
<path d="M20.1145 0.51285C19.0979 -0.391887 17.8669 -0.0285189 16.6523 1.04759C16.4719 1.20738 16.292 1.38474 16.113 1.57422C14.0348 3.77453 12.1058 7.85001 11.5065 10.9626C11.7401 11.4352 11.9224 12.0381 12.0424 12.4987C12.0732 12.6168 12.101 12.7278 12.1232 12.8221C12.176 13.0455 12.2043 13.1902 12.2043 13.1902C12.2043 13.1902 12.1857 13.1199 12.1092 12.8986C12.0946 12.8562 12.0784 12.8099 12.0592 12.7554C12.0492 12.7287 12.0385 12.7023 12.0271 12.6762C11.8916 12.3617 11.5167 11.6979 11.3516 11.4088C11.2208 11.7918 11.0973 12.1773 10.9813 12.565C11.4577 13.435 11.7481 14.9259 11.7481 14.9259C11.7481 14.9259 11.7229 14.8293 11.6032 14.492C11.4968 14.1938 10.9675 13.268 10.8421 13.0516C10.6276 13.842 10.5423 14.3756 10.6192 14.5055C10.7685 14.7572 10.9105 15.1916 11.0354 15.6719C11.3173 16.754 11.5132 18.0715 11.5132 18.0715C11.5132 18.0715 11.5195 18.1588 11.5303 18.2932C11.491 19.2019 11.5146 20.1441 11.5851 20.9957C11.6785 22.1231 11.8543 23.0915 12.0784 23.6098L12.2306 23.5271C11.9015 22.5059 11.7678 21.1677 11.8263 19.6243C11.9149 17.2654 12.4588 14.4204 13.4638 11.4553C15.1619 6.97916 17.5176 3.3878 19.6737 1.67264C17.7085 3.44401 15.0488 9.17759 14.2526 11.3007C13.3611 13.6784 12.7293 15.9096 12.3486 18.0473C13.0056 16.0432 15.1296 15.1818 15.1296 15.1818C15.1296 15.1818 16.1713 13.8995 17.3887 12.0675C16.6595 12.2335 15.462 12.5177 15.0609 12.6859C14.4693 12.9336 14.3099 13.0181 14.3099 13.0181C14.3099 13.0181 16.2263 11.8533 17.8705 11.3259C20.1318 7.77138 22.5954 2.72169 20.1145 0.51285Z" fill="#003B57"/>
</g>
<defs>
<linearGradient id="paint0_linear_138_30" x1="899.215" y1="35.1784" x2="899.215" y2="1552.67" gradientUnits="userSpaceOnUse">
<stop stop-color="#97D9F6"/>
<stop offset="0.92024" stop-color="#0F80CC"/>
<stop offset="1" stop-color="#0F80CC"/>
</linearGradient>
<clipPath id="clip0_138_30">
<rect width="54" height="24" fill="white"/>
</clipPath>
</defs>
</svg>
